<svg width="91" height="92" viewBox="0 0 91 92" fill="none" xmlns="http://www.w3.org/2000/svg">
<path d="M6.20563 88.2589C4.40986 88.2589 2.92664 87.6554 1.75599 86.4489C0.585329 85.2428 0 83.7546 0 81.9852C0 80.2041 0.585329 78.7159 1.75599 77.521C2.92664 76.3145 4.40986 75.7114 6.20563 75.7114C7.28535 75.7114 8.27984 75.9699 9.18912 76.487C10.1097 76.9924 10.8257 77.6819 11.3372 78.555L9.30842 79.7446C9.01295 79.2044 8.59241 78.785 8.04685 78.4864C7.50132 78.1762 6.88755 78.0211 6.20563 78.0211C5.04633 78.0211 4.10866 78.3888 3.39264 79.1238C2.68797 79.8592 2.33563 80.813 2.33563 81.9852C2.33563 83.1458 2.68797 84.0934 3.39264 84.8288C4.10866 85.5642 5.04633 85.9319 6.20563 85.9319C6.88755 85.9319 7.50132 85.7826 8.04685 85.4839C8.60379 85.1737 9.02428 84.7543 9.30842 84.2257L11.3372 85.4149C10.8257 86.2884 10.1154 86.9833 9.20614 87.5003C8.2969 88.0062 7.29672 88.2589 6.20563 88.2589Z" fill="white"/>
<path d="M15.0137 80.8819C15.2183 80.3302 15.5536 79.9166 16.0196 79.6411C16.4969 79.3652 17.0254 79.2271 17.6051 79.2271V81.7092C16.9345 81.6289 16.3321 81.7667 15.7979 82.1228C15.2751 82.4789 15.0137 83.0708 15.0137 83.898V88.0176H12.8145V79.3995H15.0137V80.8819Z" fill="white"/>
<path d="M24.6317 79.3999H26.9843L23.8815 88.018C23.4382 89.2588 22.8473 90.1551 22.1085 90.7065C21.3811 91.2694 20.4718 91.5226 19.3807 91.4651V89.3966C19.9717 89.4082 20.4377 89.2816 20.7787 89.0173C21.131 88.753 21.4095 88.3282 21.6141 87.7421L18.1191 79.3999H20.523L22.7393 85.1913L24.6317 79.3999Z" fill="white"/>
<path d="M32.9924 79.1587C34.1403 79.1587 35.1177 79.6008 35.9247 80.4856C36.743 81.3591 37.1522 82.4333 37.1522 83.7089C37.1522 84.9841 36.743 86.0644 35.9247 86.9491C35.1177 87.8223 34.1403 88.2591 32.9924 88.2591C31.799 88.2591 30.8783 87.8397 30.2305 87.0008V91.465H28.0312V79.3998H30.2305V80.4169C30.8783 79.5781 31.799 79.1587 32.9924 79.1587ZM30.8954 85.4667C31.3386 85.9151 31.9012 86.1389 32.5832 86.1389C33.2651 86.1389 33.8277 85.9151 34.271 85.4667C34.7256 85.0072 34.9529 84.4211 34.9529 83.7089C34.9529 82.9962 34.7256 82.4163 34.271 81.968C33.8277 81.5084 33.2651 81.2785 32.5832 81.2785C31.9012 81.2785 31.3386 81.5084 30.8954 81.968C30.4521 82.4163 30.2305 82.9962 30.2305 83.7089C30.2305 84.4211 30.4521 85.0072 30.8954 85.4667Z" fill="white"/>
<path d="M43.394 81.537H41.4678V85.1222C41.4678 85.4209 41.5414 85.6392 41.6891 85.777C41.8368 85.9151 42.0528 85.9954 42.3372 86.0185C42.6211 86.0297 42.9734 86.0243 43.394 86.0012V88.018C41.8822 88.19 40.8141 88.0465 40.189 87.587C39.5752 87.1274 39.2684 86.3056 39.2684 85.1222V81.537H37.7852V79.3999H39.2684V77.6589L41.4678 76.9868V79.3999H43.394V81.537Z" fill="white"/>
<path d="M51.9422 86.9491C51.0671 87.8223 49.9984 88.2591 48.7371 88.2591C47.4754 88.2591 46.4071 87.8223 45.532 86.9491C44.668 86.0644 44.2363 84.9841 44.2363 83.7089C44.2363 82.4333 44.668 81.3591 45.532 80.4856C46.4071 79.6008 47.4754 79.1587 48.7371 79.1587C49.9984 79.1587 51.0671 79.6008 51.9422 80.4856C52.8173 81.3591 53.255 82.4333 53.255 83.7089C53.255 84.9841 52.8173 86.0644 51.9422 86.9491ZM47.0834 85.415C47.5265 85.8634 48.078 86.0872 48.7371 86.0872C49.3962 86.0872 49.9473 85.8634 50.3908 85.415C50.8339 84.9671 51.0556 84.3984 51.0556 83.7089C51.0556 83.0194 50.8339 82.4507 50.3908 82.0023C49.9473 81.5544 49.3962 81.3302 48.7371 81.3302C48.078 81.3302 47.5265 81.5544 47.0834 82.0023C46.6514 82.4507 46.4354 83.0194 46.4354 83.7089C46.4354 84.3984 46.6514 84.9671 47.0834 85.415Z" fill="white"/>
<path d="M60.565 88.2589C58.7693 88.2589 57.2858 87.6554 56.1153 86.4489C54.9444 85.2428 54.3594 83.7546 54.3594 81.9852C54.3594 80.2041 54.9444 78.7159 56.1153 77.521C57.2858 76.3145 58.7693 75.7114 60.565 75.7114C61.6446 75.7114 62.6392 75.9699 63.5483 76.487C64.4688 76.9924 65.1852 77.6819 65.6966 78.555L63.6677 79.7446C63.3724 79.2044 62.9518 78.785 62.406 78.4864C61.8607 78.1762 61.247 78.0211 60.565 78.0211C59.4055 78.0211 58.4678 78.3888 57.7518 79.1238C57.0473 79.8592 56.6951 80.813 56.6951 81.9852C56.6951 83.1458 57.0473 84.0934 57.7518 84.8288C58.4678 85.5642 59.4055 85.9319 60.565 85.9319C61.247 85.9319 61.8607 85.7826 62.406 85.4839C62.9632 85.1737 63.3834 84.7543 63.6677 84.2257L65.6966 85.4149C65.1852 86.2884 64.4745 86.9833 63.5655 87.5003C62.656 88.0062 61.6561 88.2589 60.565 88.2589Z" fill="white"/>
<path d="M71.9112 79.1586C72.8431 79.1586 73.6103 79.4746 74.2129 80.1066C74.8266 80.7386 75.1334 81.6117 75.1334 82.7264V88.0178H72.934V83.0019C72.934 82.4274 72.7805 81.991 72.4737 81.692C72.1669 81.3818 71.7577 81.2267 71.2463 81.2267C70.6781 81.2267 70.2235 81.4049 69.8823 81.761C69.5415 82.1172 69.3709 82.6516 69.3709 83.3638V88.0178H67.1719V75.9526H69.3709V80.3651C69.9052 79.5606 70.7521 79.1586 71.9112 79.1586Z" fill="white"/>
<path d="M78.1027 78.3656C77.739 78.3656 77.4207 78.2333 77.1478 77.9694C76.8864 77.6935 76.7559 77.3717 76.7559 77.004C76.7559 76.6363 76.8864 76.3145 77.1478 76.0386C77.4207 75.7631 77.739 75.625 78.1027 75.625C78.4779 75.625 78.7957 75.7631 79.0572 76.0386C79.3301 76.3145 79.4663 76.6363 79.4663 77.004C79.4663 77.3717 79.3301 77.6935 79.0572 77.9694C78.7957 78.2333 78.4779 78.3656 78.1027 78.3656ZM77.0116 88.0177V79.3997H79.2106V88.0177H77.0116Z" fill="white"/>
<path d="M86.1841 79.1587C87.3317 79.1587 88.3095 79.6008 89.1163 80.4856C89.9345 81.3591 90.3437 82.4333 90.3437 83.7089C90.3437 84.9841 89.9345 86.0644 89.1163 86.9491C88.3095 87.8223 87.3317 88.2591 86.1841 88.2591C84.9907 88.2591 84.0697 87.8397 83.4221 87.0008V91.465H81.2227V79.3998H83.4221V80.4169C84.0697 79.5781 84.9907 79.1587 86.1841 79.1587ZM84.0869 85.4667C84.5304 85.9151 85.093 86.1389 85.775 86.1389C86.4566 86.1389 87.0191 85.9151 87.4626 85.4667C87.9171 85.0072 88.1446 84.4211 88.1446 83.7089C88.1446 82.9962 87.9171 82.4163 87.4626 81.968C87.0191 81.5084 86.4566 81.2785 85.775 81.2785C85.093 81.2785 84.5304 81.5084 84.0869 81.968C83.6439 82.4163 83.4221 82.9962 83.4221 83.7089C83.4221 84.4211 83.6439 85.0072 84.0869 85.4667Z" fill="white"/>
<path fill-rule="evenodd" clip-rule="evenodd" d="M56.3768 40.1807C56.0824 40.1809 55.7907 40.123 55.5186 40.0104C55.2465 39.8978 54.9993 39.7327 54.791 39.5244C54.5828 39.3162 54.4176 39.0689 54.305 38.7968C54.1924 38.5247 54.1346 38.2331 54.1348 37.9386C54.1347 37.6442 54.1926 37.3526 54.3052 37.0806C54.4179 36.8086 54.5831 36.5614 54.7913 36.3533C54.9995 36.1451 55.2467 35.98 55.5188 35.8675C55.7908 35.7549 56.0824 35.6971 56.3768 35.6973C56.6713 35.6971 56.9628 35.7549 57.2349 35.8675C57.507 35.98 57.7542 36.1451 57.9624 36.3533C58.1706 36.5614 58.3358 36.8086 58.4484 37.0806C58.5611 37.3526 58.619 37.6442 58.6189 37.9386C58.6191 38.2331 58.5612 38.5247 58.4486 38.7968C58.336 39.0689 58.1709 39.3162 57.9627 39.5244C57.7544 39.7327 57.5072 39.8978 57.2351 40.0104C56.963 40.123 56.6713 40.1809 56.3768 40.1807Z" fill="white"/>
<path fill-rule="evenodd" clip-rule="evenodd" d="M70.3331 33.7024C70.6275 33.7025 70.9191 33.6446 71.1912 33.532C71.4633 33.4193 71.7105 33.2542 71.9187 33.046C72.1269 32.8377 72.292 32.5905 72.4047 32.3185C72.5173 32.0464 72.5752 31.7548 72.5751 31.4604V16.7415C72.5644 16.1541 72.3235 15.5943 71.9043 15.1826C71.4851 14.771 70.921 14.5403 70.3334 14.5403C69.7459 14.5403 69.1818 14.771 68.7626 15.1826C68.3433 15.5943 68.1025 16.1541 68.0917 16.7415V17.2894C68.0763 17.6164 67.933 17.9242 67.6928 18.1466C67.4525 18.369 67.1346 18.4881 66.8074 18.4783C66.4802 18.4686 66.1699 18.3307 65.9433 18.0943C65.7168 17.858 65.5922 17.5422 65.5962 17.2148V8.26444C65.5962 7.97001 65.5383 7.67846 65.4256 7.40644C65.3129 7.13441 65.1478 6.88725 64.9396 6.67905C64.7314 6.47086 64.4842 6.30571 64.2122 6.19303C63.9402 6.08036 63.6486 6.02237 63.3542 6.02237C63.0597 6.02237 62.7682 6.08036 62.4962 6.19303C62.2241 6.30571 61.977 6.47086 61.7688 6.67905C61.5606 6.88725 61.3954 7.13441 61.2828 7.40644C61.1701 7.67846 61.1121 7.97001 61.1121 8.26444V13.8719C61.0863 14.1871 60.9418 14.4808 60.7078 14.6936C60.4737 14.9063 60.1676 15.0222 59.8513 15.0179C59.535 15.0135 59.2322 14.8892 59.0041 14.6701C58.776 14.451 58.6396 14.1534 58.6226 13.8376V4.52417C58.6228 4.22978 58.5649 3.93824 58.4524 3.66622C58.3398 3.3942 58.1747 3.14704 57.9665 2.93888C57.7584 2.73071 57.5112 2.56562 57.2392 2.45306C56.9672 2.34049 56.6756 2.28265 56.3812 2.28284C56.0868 2.28265 55.7952 2.34048 55.5232 2.45304C55.2511 2.5656 55.0039 2.73068 54.7957 2.93883C54.5874 3.14699 54.4223 3.39414 54.3096 3.66617C54.197 3.93819 54.1391 4.22975 54.1392 4.52417V5.98212C54.1305 6.30845 53.9947 6.61848 53.7606 6.846C53.5265 7.07352 53.2127 7.2005 52.8863 7.19982C52.5598 7.19914 52.2466 7.07085 52.0134 6.84235C51.7803 6.61386 51.6457 6.30326 51.6384 5.9769V2.28284C51.6384 1.98841 51.5804 1.69686 51.4678 1.42484C51.3551 1.15282 51.19 0.905655 50.9818 0.69746C50.7736 0.489264 50.5264 0.324114 50.2544 0.211439C49.9824 0.0987644 49.6908 0.0407715 49.3964 0.0407715C49.1019 0.0407715 48.8104 0.0987644 48.5384 0.211439C48.2663 0.324114 48.0192 0.489264 47.811 0.69746C47.6028 0.905655 47.4376 1.15282 47.325 1.42484C47.2123 1.69686 47.1543 1.98841 47.1543 2.28284V58.1372C47.1543 58.7318 47.3905 59.3021 47.811 59.7225C48.2315 60.143 48.8017 60.3792 49.3964 60.3792C49.991 60.3792 50.5613 60.143 50.9818 59.7225C51.4022 59.3021 51.6384 58.7318 51.6384 58.1372V55.336C51.6456 55.0097 51.7801 54.699 52.0131 54.4705C52.2462 54.2419 52.5594 54.1135 52.8859 54.1127C53.2123 54.1119 53.5262 54.2388 53.7603 54.4663C53.9945 54.6938 54.1305 55.0038 54.1392 55.3301V55.8779C54.139 56.1724 54.1968 56.4641 54.3094 56.7362C54.422 57.0083 54.5872 57.2555 54.7954 57.4638C55.0036 57.672 55.2509 57.8371 55.523 57.9497C55.7951 58.0623 56.0867 58.1202 56.3812 58.12C56.6757 58.1201 56.9672 58.0622 57.2392 57.9495C57.5113 57.8369 57.7584 57.6717 57.9666 57.4635C58.1747 57.2553 58.3398 57.0081 58.4524 56.736C58.5649 56.4639 58.6228 56.1724 58.6226 55.8779V50.3167C58.6396 50.0009 58.776 49.7033 59.0041 49.4842C59.2322 49.2651 59.535 49.1408 59.8513 49.1364C60.1676 49.1321 60.4737 49.248 60.7078 49.4607C60.9418 49.6735 61.0863 49.9672 61.1121 50.2824V52.1496C61.1121 52.7442 61.3483 53.3145 61.7688 53.735C62.1893 54.1554 62.7595 54.3917 63.3542 54.3917C63.9488 54.3917 64.5191 54.1554 64.9396 53.735C65.36 53.3145 65.5962 52.7442 65.5962 52.1496V43.4012C65.5922 43.0738 65.7168 42.758 65.9433 42.5217C66.1699 42.2854 66.4802 42.1475 66.8074 42.1377C67.1346 42.1279 67.4525 42.247 67.6928 42.4694C67.933 42.6918 68.0763 42.9997 68.0917 43.3266V43.6725C68.0863 43.9703 68.1403 44.2662 68.2505 44.543C68.3607 44.8197 68.525 45.0717 68.7337 45.2842C68.9424 45.4968 69.1913 45.6656 69.466 45.7808C69.7407 45.8961 70.0356 45.9555 70.3334 45.9555C70.6313 45.9555 70.9262 45.8961 71.2009 45.7808C71.4756 45.6656 71.7245 45.4968 71.9332 45.2842C72.1419 45.0717 72.3062 44.8197 72.4164 44.543C72.5266 44.2662 72.5806 43.9703 72.5751 43.6725V38.364C72.5644 37.7765 72.3235 37.2167 71.9043 36.8051C71.4851 36.3934 70.921 36.1628 70.3334 36.1628C69.7459 36.1628 69.1818 36.3934 68.7626 36.8051C68.3433 37.2167 68.1025 37.7765 68.0917 38.364V38.5317C68.0763 38.8587 67.933 39.1665 67.6928 39.3889C67.4525 39.6113 67.1346 39.7304 66.8074 39.7206C66.4802 39.7109 66.1699 39.573 65.9433 39.3366C65.7168 39.1003 65.5922 38.7845 65.5962 38.4571V29.386C65.5962 29.0916 65.5383 28.8 65.4256 28.528C65.3129 28.256 65.1478 28.0088 64.9396 27.8006C64.7314 27.5924 64.4842 27.4273 64.2122 27.3146C63.9402 27.2019 63.6486 27.1439 63.3542 27.1439C63.0597 27.1439 62.7682 27.2019 62.4962 27.3146C62.2241 27.4273 61.977 27.5924 61.7688 27.8006C61.5606 28.0088 61.3954 28.256 61.2828 28.528C61.1701 28.8 61.1121 29.0916 61.1121 29.386V45.5337C61.0863 45.8489 60.9417 46.1426 60.7075 46.3553C60.4734 46.568 60.1672 46.6839 59.851 46.6794C59.5347 46.675 59.2319 46.5505 59.0038 46.3313C58.7758 46.1121 58.6395 45.8145 58.6226 45.4987V44.842C58.6226 44.5477 58.5646 44.2563 58.4519 43.9844C58.3393 43.7125 58.1742 43.4655 57.966 43.2574C57.7579 43.0493 57.5108 42.8843 57.2389 42.7717C56.967 42.6592 56.6755 42.6013 56.3812 42.6014C56.0867 42.6012 55.7951 42.6591 55.523 42.7717C55.2509 42.8843 55.0036 43.0494 54.7954 43.2577C54.5872 43.4659 54.422 43.7131 54.3094 43.9852C54.1968 44.2574 54.139 44.549 54.1392 44.8435V50.3928C54.1305 50.7191 53.9947 51.0291 53.7606 51.2566C53.5265 51.4842 53.2127 51.6111 52.8863 51.6105C52.5598 51.6098 52.2466 51.4815 52.0134 51.253C51.7803 51.0245 51.6457 50.7139 51.6384 50.3875V28.7226C51.6457 28.3962 51.7803 28.0857 52.0134 27.8572C52.2466 27.6287 52.5598 27.5004 52.8863 27.4997C53.2127 27.499 53.5265 27.626 53.7606 27.8535C53.9947 28.081 54.1305 28.3911 54.1392 28.7174V31.034C54.1391 31.3284 54.197 31.62 54.3096 31.892C54.4223 32.164 54.5874 32.4112 54.7957 32.6193C55.0039 32.8275 55.2511 32.9926 55.5232 33.1051C55.7952 33.2177 56.0868 33.2755 56.3812 33.2753C56.6756 33.2755 56.9672 33.2177 57.2392 33.1051C57.5112 32.9926 57.7584 32.8275 57.9665 32.6193C58.1747 32.4111 58.3398 32.164 58.4524 31.892C58.5649 31.6199 58.6228 31.3284 58.6226 31.034V18.6549C58.6396 18.3391 58.776 18.0415 59.0041 17.8224C59.2322 17.6033 59.535 17.479 59.8513 17.4746C60.1676 17.4702 60.4737 17.5862 60.7078 17.7989C60.9418 18.0117 61.0863 18.3054 61.1121 18.6206V22.4816C61.1121 22.7761 61.1701 23.0676 61.2828 23.3396C61.3954 23.6117 61.5606 23.8588 61.7688 24.067C61.977 24.2752 62.2241 24.4404 62.4962 24.553C62.7682 24.6657 63.0597 24.7237 63.3542 24.7237C63.6486 24.7237 63.9402 24.6657 64.2122 24.553C64.4842 24.4404 64.7314 24.2752 64.9396 24.067C65.1478 23.8588 65.3129 23.6117 65.4256 23.3396C65.5383 23.0676 65.5962 22.7761 65.5962 22.4816V22.1708C65.5922 21.8435 65.7168 21.5276 65.9433 21.2913C66.1699 21.055 66.4802 20.9171 66.8074 20.9073C67.1346 20.8975 67.4525 21.0167 67.6928 21.2391C67.933 21.4614 68.0763 21.7693 68.0917 22.0963V31.4604C68.0923 32.0547 68.3286 32.6245 68.7488 33.0448C69.169 33.4651 69.7387 33.7016 70.3331 33.7024ZM52.8914 25.0233C52.7272 25.0234 52.5645 24.9911 52.4128 24.9283C52.261 24.8655 52.1232 24.7734 52.0071 24.6572C51.891 24.541 51.7989 24.4031 51.7362 24.2513C51.6734 24.0995 51.6412 23.9369 51.6414 23.7726V10.9269C51.6486 10.6005 51.7831 10.2899 52.0161 10.0613C52.2492 9.83274 52.5624 9.70436 52.8889 9.70358C53.2153 9.7028 53.5291 9.82969 53.7633 10.0571C53.9975 10.2846 54.1334 10.5946 54.1421 10.9209V23.7726C54.1404 24.1043 54.0076 24.4218 53.7728 24.6561C53.538 24.8904 53.2201 25.0224 52.8884 25.0233H52.8914Z" fill="#04B8AD"/>
<path fill-rule="evenodd" clip-rule="evenodd" d="M34.2011 20.2405C34.4955 20.2404 34.787 20.2983 35.0591 20.411C35.3311 20.5236 35.5783 20.6888 35.7864 20.897C35.9946 21.1052 36.1596 21.3524 36.2722 21.6245C36.3848 21.8966 36.4426 22.1881 36.4424 22.4826C36.4426 22.777 36.3848 23.0686 36.2722 23.3406C36.1596 23.6127 35.9946 23.8599 35.7864 24.0681C35.5783 24.2763 35.3311 24.4415 35.0591 24.5541C34.787 24.6668 34.4955 24.7247 34.2011 24.7246C33.9066 24.7248 33.6149 24.667 33.3428 24.5544C33.0707 24.4418 32.8235 24.2766 32.6152 24.0684C32.407 23.8601 32.2419 23.6129 32.1293 23.3408C32.0167 23.0687 31.9588 22.777 31.959 22.4826C31.9582 22.1879 32.0157 21.896 32.1281 21.6236C32.2405 21.3512 32.4056 21.1038 32.6139 20.8954C32.8223 20.6871 33.0698 20.5219 33.3421 20.4096C33.6145 20.2972 33.9064 20.2397 34.2011 20.2405Z" fill="#04B8AD"/>
<path fill-rule="evenodd" clip-rule="evenodd" d="M20.2425 26.7177C19.6478 26.7183 19.0776 26.9549 18.6572 27.3755C18.2369 27.7962 18.0006 28.3665 18.0004 28.9612V43.6719C17.995 43.9697 18.049 44.2656 18.1592 44.5423C18.2694 44.8191 18.4337 45.0711 18.6424 45.2836C18.8511 45.4961 19.1 45.665 19.3747 45.7802C19.6494 45.8955 19.9443 45.9548 20.2421 45.9548C20.54 45.9548 20.8349 45.8955 21.1096 45.7802C21.3842 45.665 21.6332 45.4961 21.8419 45.2836C22.0506 45.0711 22.2149 44.8191 22.3251 44.5423C22.4353 44.2656 22.4893 43.9697 22.4838 43.6719V43.1233C22.4993 42.7963 22.6426 42.4884 22.8828 42.2661C23.123 42.0437 23.441 41.9245 23.7682 41.9343C24.0954 41.9441 24.4057 42.082 24.6322 42.3183C24.8588 42.5546 24.9834 42.8705 24.9793 43.1978V52.1497C24.99 52.7372 25.2309 53.2969 25.6502 53.7086C26.0694 54.1203 26.6335 54.3509 27.221 54.3509C27.8086 54.3509 28.3727 54.1203 28.7919 53.7086C29.2111 53.2969 29.452 52.7372 29.4627 52.1497V46.5475C29.4886 46.2322 29.6332 45.9386 29.8673 45.7259C30.1014 45.5132 30.4076 45.3973 30.7239 45.4018C31.0401 45.4062 31.3429 45.5306 31.571 45.7498C31.799 45.969 31.9353 46.2667 31.9523 46.5825V55.8892C31.9521 56.1837 32.0099 56.4754 32.1225 56.7475C32.2351 57.0196 32.4003 57.2668 32.6085 57.4751C32.8168 57.6833 33.064 57.8484 33.3361 57.961C33.6082 58.0736 33.8998 58.1315 34.1943 58.1313C34.4888 58.1315 34.7805 58.0736 35.0526 57.961C35.3247 57.8484 35.5719 57.6833 35.7802 57.4751C35.9884 57.2668 36.1535 57.0196 36.2661 56.7475C36.3787 56.4754 36.4366 56.1837 36.4364 55.8892V54.4313C36.4451 54.1049 36.5811 53.7949 36.8152 53.5675C37.0494 53.34 37.3632 53.2131 37.6897 53.2139C38.0161 53.2147 38.3293 53.3431 38.5624 53.5717C38.7955 53.8002 38.93 54.1109 38.9371 54.4372V58.1313C38.9317 58.4291 38.9857 58.725 39.0959 59.0018C39.2061 59.2785 39.3704 59.5305 39.5791 59.743C39.7878 59.9556 40.0367 60.1244 40.3114 60.2397C40.5861 60.3549 40.881 60.4143 41.1788 60.4143C41.4767 60.4143 41.7716 60.3549 42.0463 60.2397C42.3209 60.1244 42.5699 59.9556 42.7786 59.743C42.9873 59.5305 43.1516 59.2785 43.2618 59.0018C43.372 58.725 43.426 58.4291 43.4205 58.1313V2.28295C43.426 1.98513 43.372 1.68921 43.2618 1.41247C43.1516 1.13574 42.9873 0.883747 42.7786 0.671207C42.5699 0.458667 42.3209 0.289845 42.0463 0.1746C41.7716 0.0593558 41.4767 0 41.1788 0C40.881 0 40.5861 0.0593558 40.3114 0.1746C40.0367 0.289845 39.7878 0.458667 39.5791 0.671207C39.3704 0.883747 39.2061 1.13574 39.0959 1.41247C38.9857 1.68921 38.9317 1.98513 38.9371 2.28295V5.08331C38.93 5.40968 38.7955 5.72033 38.5624 5.9489C38.3293 6.17747 38.0161 6.30585 37.6897 6.30663C37.3632 6.30741 37.0494 6.18052 36.8152 5.95306C36.5811 5.72561 36.4451 5.41561 36.4364 5.08927V4.53621C36.4366 4.24172 36.3787 3.95008 36.2661 3.67797C36.1535 3.40586 35.9884 3.15862 35.7802 2.95038C35.5719 2.74215 35.3247 2.57701 35.0526 2.4644C34.7805 2.3518 34.4888 2.29394 34.1943 2.29413C33.8998 2.29394 33.6082 2.3518 33.3361 2.4644C33.064 2.57701 32.8168 2.74215 32.6085 2.95038C32.4003 3.15862 32.2351 3.40586 32.1225 3.67797C32.0099 3.95008 31.9521 4.24172 31.9523 4.53621V10.0974C31.9352 10.4133 31.7988 10.7108 31.5707 10.9299C31.3426 11.149 31.0398 11.2734 30.7235 11.2777C30.4072 11.2821 30.1011 11.1661 29.8671 10.9534C29.633 10.7406 29.4885 10.4469 29.4627 10.1317V8.26827C29.4682 7.97045 29.4142 7.67453 29.304 7.3978C29.1938 7.12107 29.0295 6.86907 28.8208 6.65653C28.6121 6.44399 28.3631 6.27517 28.0885 6.15992C27.8138 6.04468 27.5189 5.98532 27.221 5.98532C26.9232 5.98532 26.6283 6.04468 26.3536 6.15992C26.0789 6.27517 25.83 6.44399 25.6213 6.65653C25.4126 6.86907 25.2483 7.12107 25.1381 7.3978C25.0279 7.67453 24.9739 7.97045 24.9793 8.26827V17.013C24.9834 17.3403 24.8588 17.6561 24.6322 17.8925C24.4057 18.1288 24.0954 18.2667 23.7682 18.2765C23.441 18.2862 23.123 18.1671 22.8828 17.9447C22.6426 17.7223 22.4993 17.4145 22.4838 17.0875V16.7416C22.4888 16.4438 22.4345 16.148 22.3239 15.8714C22.2133 15.5948 22.0487 15.3431 21.8397 15.1308C21.6307 14.9186 21.3816 14.7501 21.1067 14.6352C20.8319 14.5203 20.537 14.4614 20.2391 14.4618C19.9412 14.4622 19.6464 14.5219 19.3719 14.6375C19.0974 14.7531 18.8487 14.9223 18.6403 15.1351C18.4318 15.3479 18.2679 15.6001 18.1581 15.877C18.0482 16.1538 17.9946 16.4498 18.0004 16.7476V22.0554C17.9946 22.3532 18.0482 22.6492 18.1581 22.926C18.2679 23.2029 18.4318 23.4551 18.6403 23.6679C18.8487 23.8807 19.0974 24.0499 19.3719 24.1655C19.6464 24.2811 19.9412 24.3408 20.2391 24.3412C20.537 24.3416 20.8319 24.2826 21.1067 24.1678C21.3816 24.0529 21.6307 23.8844 21.8397 23.6722C22.0487 23.4599 22.2133 23.2082 22.3239 22.9316C22.4345 22.655 22.4888 22.3592 22.4838 22.0613V21.8936C22.4993 21.5666 22.6426 21.2588 22.8828 21.0364C23.123 20.814 23.441 20.6949 23.7682 20.7047C24.0954 20.7145 24.4057 20.8524 24.6322 21.0887C24.8588 21.325 24.9834 21.6408 24.9793 21.9682V31.0393C24.99 31.6268 25.2309 32.1866 25.6502 32.5982C26.0694 33.0099 26.6335 33.2405 27.221 33.2405C27.8086 33.2405 28.3727 33.0099 28.7919 32.5982C29.2111 32.1866 29.452 31.6268 29.4627 31.0393V14.8864C29.4885 14.5712 29.633 14.2775 29.8671 14.0647C30.1011 13.852 30.4072 13.736 30.7235 13.7404C31.0398 13.7448 31.3426 13.8691 31.5707 14.0882C31.7988 14.3073 31.9352 14.6049 31.9523 14.9207V15.5781C31.9522 15.8725 32.0101 16.1641 32.1227 16.4361C32.2354 16.7081 32.4006 16.9553 32.6088 17.1635C32.817 17.3716 33.0642 17.5367 33.3363 17.6493C33.6083 17.7618 33.8999 17.8196 34.1943 17.8194C34.4888 17.8196 34.7803 17.7618 35.0524 17.6493C35.3245 17.5367 35.5717 17.3716 35.7799 17.1635C35.9881 16.9553 36.1533 16.7081 36.2659 16.4361C36.3786 16.1641 36.4365 15.8725 36.4364 15.5781V10.0288C36.4451 9.7025 36.5811 9.3925 36.8152 9.16505C37.0494 8.93759 37.3632 8.8107 37.6897 8.81148C38.0161 8.81226 38.3293 8.94064 38.5624 9.16921C38.7955 9.39778 38.93 9.70843 38.9371 10.0348V31.6968C38.93 32.0231 38.7955 32.3338 38.5624 32.5623C38.3293 32.7909 38.0161 32.9193 37.6897 32.9201C37.3632 32.9209 37.0494 32.794 36.8152 32.5665C36.5811 32.339 36.4451 32.029 36.4364 31.7027V29.3861C36.4366 29.0916 36.3787 28.8 36.2661 28.5279C36.1535 28.2558 35.9884 28.0085 35.7802 27.8003C35.5719 27.592 35.3247 27.4269 35.0526 27.3143C34.7805 27.2017 34.4888 27.1438 34.1943 27.144C33.8998 27.1438 33.6082 27.2017 33.3361 27.3143C33.064 27.4269 32.8168 27.592 32.6085 27.8003C32.4003 28.0085 32.2351 28.2558 32.1225 28.5279C32.0099 28.8 31.9521 29.0916 31.9523 29.3861V41.7645C31.9353 42.0803 31.799 42.3779 31.571 42.5971C31.3429 42.8163 31.0401 42.9408 30.7239 42.9452C30.4076 42.9497 30.1014 42.8338 29.8673 42.6211C29.6332 42.4084 29.4886 42.1147 29.4627 41.7995V37.9377C29.452 37.3503 29.2111 36.7905 28.7919 36.3788C28.3727 35.9672 27.8086 35.7365 27.221 35.7365C26.6335 35.7365 26.0694 35.9672 25.6502 36.3788C25.2309 36.7905 24.99 37.3503 24.9793 37.9377V38.2493C24.9834 38.5766 24.8588 38.8925 24.6322 39.1288C24.4057 39.3651 24.0954 39.503 23.7682 39.5128C23.441 39.5226 23.123 39.4034 22.8828 39.181C22.6426 38.9587 22.4993 38.6508 22.4838 38.3238V28.9612C22.4838 28.3666 22.2478 27.7963 21.8275 27.3756C21.4072 26.9549 20.8371 26.7183 20.2425 26.7177ZM37.6842 35.3968C37.8484 35.3966 38.0111 35.4288 38.1629 35.4915C38.3146 35.5542 38.4526 35.6463 38.5687 35.7624C38.6849 35.8785 38.777 36.0164 38.8399 36.1681C38.9027 36.3199 38.935 36.4825 38.9349 36.6468V49.4925C38.9277 49.8188 38.7933 50.1295 38.5602 50.358C38.3271 50.5866 38.0139 50.715 37.6874 50.7158C37.361 50.7166 37.0472 50.5897 36.813 50.3622C36.5788 50.1348 36.4429 49.8248 36.4342 49.4984V36.6468C36.4357 36.3153 36.5683 35.998 36.8028 35.7638C37.0374 35.5297 37.355 35.3977 37.6864 35.3968H37.6842Z" fill="white"/>
</svg>
