<svg class="svg-icon" style="width:1em;height:1em;vertical-align:middle;fill:currentColor;overflow:hidden" viewBox="0 0 1024 1024" xmlns="http://www.w3.org/2000/svg"><path d="M256 810.667c-12.8 0-21.333-4.267-29.867-12.8-17.066-17.067-17.066-42.667 0-59.734l512-512c17.067-17.066 42.667-17.066 59.734 0s17.066 42.667 0 59.734l-512 512c-8.534 8.533-17.067 12.8-29.867 12.8z"/><path d="M768 810.667c-12.8 0-21.333-4.267-29.867-12.8l-512-512c-17.066-17.067-17.066-42.667 0-59.734s42.667-17.066 59.734 0l512 512c17.066 17.067 17.066 42.667 0 59.734-8.534 8.533-17.067 12.8-29.867 12.8z"/></svg>