<svg width="28" height="31" fill="none" xmlns="http://www.w3.org/2000/svg"><rect x="10.422" width="2.233" height="30.022" rx="1.117" fill="#04B8AD"/><rect x="6.949" y="13.521" width="2.233" height="15.383" rx="1.117" fill="#04B8AD"/><rect x="6.949" y="1.116" width="2.233" height="7.692" rx="1.117" fill="#04B8AD"/><rect x="6.949" y="10.049" width="2.233" height="2.233" rx="1.117" fill="#04B8AD"/><rect x="3.477" y="2.977" width="2.233" height="13.523" rx="1.117" fill="#04B8AD"/><rect x="3.477" y="17.74" width="2.233" height="9.304" rx="1.117" fill="#04B8AD"/><rect y="13.274" width="2.233" height="9.553" rx="1.117" fill="#04B8AD"/><rect y="7.195" width="2.233" height="4.838" rx="1.117" fill="#04B8AD"/><path fill-rule="evenodd" clip-rule="evenodd" d="M9.18 4.934V2.51a.62.62 0 0 0 1.24-.028v2.48a.62.62 0 0 0-1.24-.028ZM9.18 18.208v-2.424a.62.62 0 0 0 1.24-.029v2.481a.62.62 0 0 0-1.24-.028ZM9.18 27.017v-2.425a.62.62 0 0 0 1.24-.028v2.48a.62.62 0 0 0-1.24-.027ZM5.707 23.18v-2.442a.62.62 0 0 0 1.24-.02v2.481a.62.62 0 0 0-1.24-.02ZM2.234 21.462v-2.48a.62.62 0 1 0 1.241 0v2.48a.62.62 0 0 0-1.24 0ZM2.234 10.917v-2.48a.62.62 0 1 0 1.241 0v2.48a.62.62 0 0 0-1.24 0ZM5.707 7.423v-2.44a.62.62 0 0 0 1.24-.02v-.001 2.481a.62.62 0 0 0-1.24-.02Z" fill="#04B8AD"/><rect x="16.746" y="30.023" width="2.233" height="30.022" rx="1.117" transform="rotate(-180 16.746 30.023)" fill="#04B8AD"/><rect x="20.223" y="16.5" width="2.233" height="15.383" rx="1.117" transform="rotate(-180 20.223 16.5)" fill="#04B8AD"/><rect x="20.223" y="28.906" width="2.233" height="7.692" rx="1.117" transform="rotate(-180 20.223 28.906)" fill="#04B8AD"/><rect x="20.223" y="19.974" width="2.233" height="2.233" rx="1.117" transform="rotate(-180 20.223 19.974)" fill="#04B8AD"/><rect x="23.695" y="27.045" width="2.233" height="13.523" rx="1.117" transform="rotate(-180 23.695 27.045)" fill="#04B8AD"/><rect x="23.695" y="12.282" width="2.233" height="9.304" rx="1.117" transform="rotate(-180 23.695 12.282)" fill="#04B8AD"/><rect x="27.168" y="16.748" width="2.233" height="9.553" rx="1.117" transform="rotate(-180 27.168 16.748)" fill="#04B8AD"/><rect x="27.168" y="22.827" width="2.233" height="4.838" rx="1.117" transform="rotate(-180 27.168 22.827)" fill="#04B8AD"/><path fill-rule="evenodd" clip-rule="evenodd" d="M17.992 25.06v2.48a.62.62 0 0 0-1.24 0v-2.48a.62.62 0 0 0 1.24 0ZM17.992 11.786v2.48a.62.62 0 1 0-1.24 0v-2.48a.62.62 0 0 0 1.24 0ZM17.992 2.977v2.481a.62.62 0 1 0-1.24 0v-2.48a.62.62 0 0 0 1.24 0ZM21.465 6.824v2.48a.62.62 0 1 0-1.24 0v-2.48a.62.62 0 0 0 1.24 0ZM24.934 8.592v2.416a.62.62 0 0 0-1.24.033h-.001V8.56a.62.62 0 0 0 1.24.032ZM24.934 19.137v2.416a.62.62 0 0 0-1.24.033h-.001v-2.481a.62.62 0 0 0 1.24.032ZM21.465 22.579v2.48a.62.62 0 1 0-1.24 0v-2.48a.62.62 0 0 0 1.24 0Z" fill="#04B8AD"/></svg>