<svg width="143" height="31" fill="none" xmlns="http://www.w3.org/2000/svg"><path d="M42.218 20.973c-2.15 0-3.927-.706-5.33-2.119-1.402-1.412-2.103-3.154-2.103-5.225 0-2.085.701-3.827 2.104-5.226 1.402-1.412 3.178-2.119 5.33-2.119 1.293 0 2.484.303 3.573.908 1.103.592 1.96 1.4 2.573 2.422l-2.43 1.392a3.686 3.686 0 0 0-1.511-1.473c-.654-.363-1.389-.545-2.206-.545-1.388 0-2.511.43-3.37 1.291-.843.861-1.265 1.978-1.265 3.35 0 1.358.422 2.468 1.266 3.329.858.86 1.98 1.291 3.37 1.291.816 0 1.551-.175 2.205-.525.667-.363 1.17-.854 1.511-1.472l2.43 1.392c-.613 1.022-1.463 1.836-2.553 2.441-1.089.592-2.287.888-3.594.888ZM52.767 12.337c.246-.645.647-1.13 1.205-1.452a3.795 3.795 0 0 1 1.9-.485v2.906c-.804-.094-1.525.067-2.165.484-.626.417-.94 1.11-.94 2.078v4.822h-2.634V10.602h2.634v1.735ZM64.289 10.602h2.818L63.39 20.69c-.53 1.453-1.239 2.502-2.123 3.148-.872.659-1.96.955-3.268.888v-2.422c.708.014 1.266-.134 1.675-.443.422-.31.755-.808 1-1.494l-4.186-9.765h2.88l2.654 6.78 2.267-6.78ZM74.303 10.32c1.375 0 2.546.518 3.512 1.553.98 1.023 1.47 2.28 1.47 3.773 0 1.493-.49 2.758-1.47 3.793-.966 1.023-2.137 1.534-3.512 1.534-1.43 0-2.532-.491-3.308-1.473v5.226H68.36V10.602h2.635v1.19c.776-.981 1.879-1.472 3.308-1.472Zm-2.512 7.384c.531.525 1.205.787 2.022.787.817 0 1.49-.262 2.022-.787.544-.538.816-1.224.816-2.058 0-.834-.272-1.513-.816-2.038-.531-.538-1.205-.807-2.022-.807-.817 0-1.49.27-2.022.807-.53.525-.796 1.204-.796 2.038 0 .834.265 1.52.796 2.058ZM86.764 13.104h-2.307v4.197c0 .35.089.605.265.766.177.162.436.256.776.283.34.013.763.007 1.266-.02v2.36c-1.81.202-3.09.034-3.839-.504-.735-.538-1.102-1.5-1.102-2.885v-4.197h-1.777v-2.502h1.777V8.564l2.634-.786v2.824h2.308v2.502ZM97.002 19.44c-1.048 1.022-2.328 1.533-3.839 1.533-1.511 0-2.79-.511-3.84-1.534-1.034-1.035-1.551-2.3-1.551-3.793 0-1.493.517-2.75 1.552-3.773 1.048-1.035 2.328-1.553 3.839-1.553 1.511 0 2.79.518 3.84 1.553 1.047 1.023 1.572 2.28 1.572 3.773 0 1.493-.525 2.758-1.573 3.793Zm-5.82-1.796c.531.524 1.191.787 1.981.787s1.45-.263 1.98-.787c.532-.525.797-1.19.797-1.998 0-.807-.265-1.473-.796-1.997-.531-.525-1.191-.787-1.981-.787s-1.45.262-1.98.787c-.518.524-.777 1.19-.777 1.997 0 .807.259 1.473.776 1.998ZM107.33 20.973c-2.151 0-3.928-.706-5.33-2.119-1.402-1.412-2.103-3.154-2.103-5.225 0-2.085.701-3.827 2.103-5.226 1.402-1.412 3.179-2.119 5.33-2.119 1.293 0 2.485.303 3.574.908 1.102.592 1.96 1.4 2.573 2.422l-2.43 1.392a3.685 3.685 0 0 0-1.512-1.473c-.653-.363-1.388-.545-2.205-.545-1.389 0-2.512.43-3.369 1.291-.845.861-1.267 1.978-1.267 3.35 0 1.358.422 2.468 1.267 3.329.857.86 1.98 1.291 3.369 1.291.817 0 1.552-.175 2.205-.525.668-.363 1.171-.854 1.512-1.472l2.43 1.392c-.613 1.022-1.464 1.836-2.553 2.441-1.089.592-2.287.888-3.594.888ZM120.922 10.32c1.116 0 2.035.37 2.757 1.11.735.74 1.102 1.761 1.102 3.066v6.194h-2.634V14.82c0-.673-.184-1.184-.551-1.533-.368-.364-.858-.545-1.471-.545-.68 0-1.225.208-1.633.625-.409.417-.613 1.043-.613 1.877v5.447h-2.634V6.567h2.634v5.165c.64-.941 1.654-1.412 3.043-1.412ZM128.338 9.392c-.436 0-.817-.155-1.144-.464-.313-.323-.47-.7-.47-1.13 0-.43.157-.807.47-1.13a1.577 1.577 0 0 1 1.144-.484c.449 0 .83.161 1.143.484.327.323.49.7.49 1.13 0 .43-.163.807-.49 1.13-.313.309-.694.464-1.143.464Zm-1.307 11.298V10.602h2.634V20.69h-2.634ZM138.019 10.32c1.375 0 2.545.518 3.512 1.553.98 1.023 1.47 2.28 1.47 3.773 0 1.493-.49 2.758-1.47 3.793-.967 1.023-2.137 1.534-3.512 1.534-1.43 0-2.533-.491-3.309-1.473v5.226h-2.634V10.602h2.634v1.19c.776-.981 1.879-1.472 3.309-1.472Zm-2.512 7.384c.531.525 1.205.787 2.022.787.816 0 1.49-.262 2.021-.787.545-.538.817-1.224.817-2.058 0-.834-.272-1.513-.817-2.038-.531-.538-1.205-.807-2.021-.807-.817 0-1.491.27-2.022.807-.531.525-.797 1.204-.797 2.038 0 .834.266 1.52.797 2.058Z" fill="#fff"/><rect x="10.422" width="2.233" height="30.022" rx="1.117" fill="#04B8AD"/><rect x="6.949" y="13.521" width="2.233" height="15.383" rx="1.117" fill="#04B8AD"/><rect x="6.949" y="1.116" width="2.233" height="7.692" rx="1.117" fill="#04B8AD"/><rect x="6.949" y="10.049" width="2.233" height="2.233" rx="1.117" fill="#04B8AD"/><rect x="3.477" y="2.977" width="2.233" height="13.523" rx="1.117" fill="#04B8AD"/><rect x="3.477" y="17.74" width="2.233" height="9.304" rx="1.117" fill="#04B8AD"/><rect y="13.274" width="2.233" height="9.553" rx="1.117" fill="#04B8AD"/><rect y="7.195" width="2.233" height="4.838" rx="1.117" fill="#04B8AD"/><path fill-rule="evenodd" clip-rule="evenodd" d="M9.18 4.934V2.51a.62.62 0 0 0 1.24-.028v2.48a.62.62 0 0 0-1.24-.028ZM9.18 18.208v-2.424a.62.62 0 0 0 1.24-.029v2.481a.62.62 0 0 0-1.24-.028ZM9.18 27.017v-2.425a.62.62 0 0 0 1.24-.028v2.48a.62.62 0 0 0-1.24-.027ZM5.707 23.18v-2.442a.62.62 0 0 0 1.24-.02v2.481a.62.62 0 0 0-1.24-.02ZM2.234 21.462v-2.48a.62.62 0 1 0 1.241 0v2.48a.62.62 0 0 0-1.24 0ZM2.234 10.917v-2.48a.62.62 0 1 0 1.241 0v2.48a.62.62 0 0 0-1.24 0ZM5.707 7.423v-2.44a.62.62 0 0 0 1.24-.02v-.001 2.481a.62.62 0 0 0-1.24-.02Z" fill="#04B8AD"/><rect x="16.746" y="30.023" width="2.233" height="30.022" rx="1.117" transform="rotate(-180 16.746 30.023)" fill="#04B8AD"/><rect x="20.223" y="16.5" width="2.233" height="15.383" rx="1.117" transform="rotate(-180 20.223 16.5)" fill="#04B8AD"/><rect x="20.223" y="28.906" width="2.233" height="7.692" rx="1.117" transform="rotate(-180 20.223 28.906)" fill="#04B8AD"/><rect x="20.223" y="19.974" width="2.233" height="2.233" rx="1.117" transform="rotate(-180 20.223 19.974)" fill="#04B8AD"/><rect x="23.695" y="27.045" width="2.233" height="13.523" rx="1.117" transform="rotate(-180 23.695 27.045)" fill="#04B8AD"/><rect x="23.695" y="12.282" width="2.233" height="9.304" rx="1.117" transform="rotate(-180 23.695 12.282)" fill="#04B8AD"/><rect x="27.168" y="16.748" width="2.233" height="9.553" rx="1.117" transform="rotate(-180 27.168 16.748)" fill="#04B8AD"/><rect x="27.168" y="22.827" width="2.233" height="4.838" rx="1.117" transform="rotate(-180 27.168 22.827)" fill="#04B8AD"/><path fill-rule="evenodd" clip-rule="evenodd" d="M17.992 25.06v2.48a.62.62 0 0 0-1.24 0v-2.48a.62.62 0 0 0 1.24 0ZM17.992 11.786v2.48a.62.62 0 1 0-1.24 0v-2.48a.62.62 0 0 0 1.24 0ZM17.992 2.977v2.481a.62.62 0 1 0-1.24 0v-2.48a.62.62 0 0 0 1.24 0ZM21.465 6.824v2.48a.62.62 0 1 0-1.24 0v-2.48a.62.62 0 0 0 1.24 0ZM24.934 8.592v2.416a.62.62 0 0 0-1.24.033h-.001V8.56a.62.62 0 0 0 1.24.032ZM24.934 19.137v2.416a.62.62 0 0 0-1.24.033h-.001v-2.481a.62.62 0 0 0 1.24.032ZM21.465 22.579v2.48a.62.62 0 1 0-1.24 0v-2.48a.62.62 0 0 0 1.24 0Z" fill="#04B8AD"/></svg>